<svg width="128" height="128" viewBox="0 0 128 128" xmlns="http://www.w3.org/2000/svg">
  <!-- Background -->
  <rect width="128" height="128" rx="24" fill="#f6f8fa"/>
  
  <!-- Browser window as background -->
  <rect x="12" y="20" width="104" height="80" rx="8" fill="#ffffff" stroke="#d0d7de" stroke-width="1"/>
  
  <!-- Browser header bar -->
  <rect x="12" y="20" width="104" height="16" rx="8" fill="#f6f8fa"/>
  <rect x="12" y="32" width="104" height="4" fill="#e1e4e8"/>
  
  <!-- Traffic light dots -->
  <circle cx="22" cy="28" r="2.5" fill="#ff5f56"/>
  <circle cx="30" cy="28" r="2.5" fill="#ffbd2e"/>
  <circle cx="38" cy="28" r="2.5" fill="#27ca3f"/>
  
  <!-- URL bar -->
  <rect x="50" y="24" width="60" height="8" rx="4" fill="#ffffff" stroke="#d0d7de" stroke-width="1"/>
  <text x="52" y="30" font-family="system-ui, -apple-system" font-size="4" fill="#656d76">github.com</text>
  
  <!-- Browser content area -->
  <rect x="16" y="40" width="96" height="56" rx="4" fill="#fafbfc"/>
  
  <!-- Subtle content lines in browser -->
  <rect x="20" y="44" width="88" height="2" rx="1" fill="#e1e4e8"/>
  <rect x="20" y="48" width="70" height="2" rx="1" fill="#e1e4e8"/>
  <rect x="20" y="52" width="82" height="2" rx="1" fill="#e1e4e8"/>
  
  <!-- Code brackets overlaid on top - large and prominent -->
  <g transform="translate(64, 64)">
    <!-- Left bracket < -->
    <path d="M-15 0 L-25 -18 L-20 -20 L-8 -6 L-8 6 L-20 20 L-25 18 Z" fill="#0969da" opacity="0.9"/>
    
    <!-- Right bracket > -->
    <path d="M15 0 L25 -18 L20 -20 L8 -6 L8 6 L20 20 L25 18 Z" fill="#0969da" opacity="0.9"/>
  </g>
  
  <!-- Subtle shadow behind code brackets -->
  <g transform="translate(66, 66)">
    <path d="M-15 0 L-25 -18 L-20 -20 L-8 -6 L-8 6 L-20 20 L-25 18 Z" fill="#000000" opacity="0.1"/>
    <path d="M15 0 L25 -18 L20 -20 L8 -6 L8 6 L20 20 L25 18 Z" fill="#000000" opacity="0.1"/>
  </g>
</svg>