<svg width="128" height="128" viewBox="0 0 128 128" xmlns="http://www.w3.org/2000/svg">
  <!-- Background -->
  <rect width="128" height="128" rx="24" fill="#24292f"/>
  
  <!-- Browser window (left side) -->
  <rect x="20" y="35" width="42" height="32" rx="6" fill="#f6f8fa" stroke="none"/>
  
  <!-- Browser header bar -->
  <rect x="20" y="35" width="42" height="8" rx="6" fill="#e1e4e8"/>
  
  <!-- Browser dots -->
  <circle cx="26" cy="39" r="1.5" fill="#ff5f56"/>
  <circle cx="31" cy="39" r="1.5" fill="#ffbd2e"/>
  <circle cx="36" cy="39" r="1.5" fill="#27ca3f"/>
  
  <!-- URL bar in browser -->
  <rect x="24" y="47" width="34" height="4" rx="2" fill="#e1e4e8"/>
  <rect x="26" y="48.5" width="8" height="1" rx="0.5" fill="#586069"/>
  
  <!-- Content area -->
  <rect x="24" y="54" width="34" height="8" rx="1" fill="#fafbfc"/>
  <rect x="26" y="56" width="12" height="1" rx="0.5" fill="#d0d7de"/>
  <rect x="26" y="58" width="8" height="1" rx="0.5" fill="#d0d7de"/>
  
  <!-- Code brackets (right side) - modern style -->
  <g transform="translate(66, 64)">
    <!-- Left bracket < -->
    <path d="M0 0 L-8 -12 L-6 -14 L4 -4 L4 4 L-6 14 L-8 12 Z" fill="#0969da" stroke="none"/>
    
    <!-- Right bracket > -->
    <path d="M12 0 L20 -12 L18 -14 L8 -4 L8 4 L18 14 L20 12 Z" fill="#0969da" stroke="none"/>
  </g>
  
  <!-- Subtle connection indicator -->
  <circle cx="64" cy="86" r="2" fill="#238636" opacity="0.8"/>
</svg>