<svg width="128" height="128" viewBox="0 0 128 128" xmlns="http://www.w3.org/2000/svg">
  <!-- Background circle -->
  <circle cx="64" cy="64" r="60" fill="#24292e" stroke="#f6f8fa" stroke-width="4"/>
  
  <!-- GitHub-like octagon shape (left side) -->
  <path d="M30 45 L30 35 Q30 30 35 30 L45 30 Q50 30 50 35 L50 45 Q50 50 45 50 L35 50 Q30 50 30 45 Z" fill="#f6f8fa"/>
  
  <!-- Code brackets (center-left) -->
  <path d="M20 64 L28 58 L28 62 L24 64 L28 66 L28 70 L20 64 Z" fill="#f78166" stroke="#f78166" stroke-width="1"/>
  <path d="M32 58 L40 64 L32 70 L30 68 L36 64 L30 60 L32 58 Z" fill="#f78166" stroke="#f78166" stroke-width="1"/>
  
  <!-- Arrow pointing right -->
  <path d="M55 60 L75 60 L75 56 L85 64 L75 72 L75 68 L55 68 Z" fill="#238636" stroke="#238636" stroke-width="1"/>
  
  <!-- Editor window (right side) -->
  <rect x="90" y="45" width="25" height="20" rx="2" fill="#f6f8fa" stroke="#656d76" stroke-width="1"/>
  
  <!-- Editor window header -->
  <rect x="90" y="45" width="25" height="4" rx="2" fill="#656d76"/>
  
  <!-- Editor window dots -->
  <circle cx="93" cy="47" r="0.8" fill="#ff6b6b"/>
  <circle cx="96" cy="47" r="0.8" fill="#feca57"/>
  <circle cx="99" cy="47" r="0.8" fill="#48ca00"/>
  
  <!-- Code lines in editor -->
  <rect x="92" y="52" width="8" height="1" fill="#0969da"/>
  <rect x="92" y="55" width="12" height="1" fill="#656d76"/>
  <rect x="92" y="58" width="6" height="1" fill="#d1242f"/>
  <rect x="92" y="61" width="10" height="1" fill="#656d76"/>
  
  <!-- Connection line -->
  <path d="M50 40 Q64 25 90 40" stroke="#8b949e" stroke-width="2" fill="none" stroke-dasharray="3,2"/>
</svg>